<mxfile host="app.diagrams.net" modified="2021-06-21T06:14:04.738Z" agent="5.0 (Macintosh; Intel Mac OS X 10_15_7) AppleWebKit/537.36 (KHTML, like Gecko) Chrome/91.0.4472.106 Safari/537.36" etag="JBu1dlyb_iRVKfc9tGXo" version="14.8.0" type="github">
  <diagram id="eep8vk96-jutEZxkzPkF" name="Page-1">
    <mxGraphModel dx="946" dy="514" grid="1" gridSize="10" guides="1" tooltips="1" connect="1" arrows="1" fold="1" page="1" pageScale="1" pageWidth="827" pageHeight="1169" math="0" shadow="0">
      <root>
        <mxCell id="0" />
        <mxCell id="1" parent="0" />
        <mxCell id="HDzoqSaJvQR1_FK92WQv-1" value="前端" style="shape=umlLifeline;perimeter=lifelinePerimeter;whiteSpace=wrap;html=1;container=1;collapsible=0;recursiveResize=0;outlineConnect=0;" parent="1" vertex="1">
          <mxGeometry x="30" y="20" width="100" height="380" as="geometry" />
        </mxCell>
        <mxCell id="HDzoqSaJvQR1_FK92WQv-2" value="服务" style="shape=umlLifeline;perimeter=lifelinePerimeter;whiteSpace=wrap;html=1;container=1;collapsible=0;recursiveResize=0;outlineConnect=0;" parent="1" vertex="1">
          <mxGeometry x="413.5" y="15" width="100" height="375" as="geometry" />
        </mxCell>
        <mxCell id="HDzoqSaJvQR1_FK92WQv-3" value="&lt;h1&gt;登陆&lt;/h1&gt;&lt;p&gt;一键登录获取token&lt;/p&gt;" style="text;html=1;strokeColor=none;fillColor=none;spacing=5;spacingTop=-20;whiteSpace=wrap;overflow=hidden;rounded=0;" parent="1" vertex="1">
          <mxGeometry x="560" y="20" width="190" height="120" as="geometry" />
        </mxCell>
        <mxCell id="HDzoqSaJvQR1_FK92WQv-4" value="请求接口&amp;nbsp; /auth/login" style="html=1;verticalAlign=bottom;endArrow=block;" parent="1" edge="1">
          <mxGeometry width="80" relative="1" as="geometry">
            <mxPoint x="110" y="100" as="sourcePoint" />
            <mxPoint x="440" y="100" as="targetPoint" />
          </mxGeometry>
        </mxCell>
        <mxCell id="HDzoqSaJvQR1_FK92WQv-6" value="&lt;p style=&quot;margin: 0px ; margin-top: 4px ; text-align: center ; text-decoration: underline&quot;&gt;&lt;b&gt;请求参数&lt;/b&gt;&lt;/p&gt;&lt;hr&gt;&lt;p style=&quot;margin: 0px ; margin-left: 8px&quot;&gt;grantType = client&lt;br&gt;mobile = 手机号 (非对称加密)&lt;br&gt;appId = 平台授予的appId&lt;/p&gt;&lt;p style=&quot;margin: 0px ; margin-left: 8px&quot;&gt;appSecret = 平台授权的appSecret&amp;nbsp; &amp;nbsp;（非对称加密)&amp;nbsp; &amp;nbsp; &amp;nbsp; &amp;nbsp; &amp;nbsp; &amp;nbsp; &amp;nbsp; &amp;nbsp; &amp;nbsp; &amp;nbsp; &amp;nbsp; &amp;nbsp; &amp;nbsp; &amp;nbsp; &amp;nbsp; &amp;nbsp; &amp;nbsp;&amp;nbsp;&lt;/p&gt;" style="verticalAlign=top;align=left;overflow=fill;fontSize=12;fontFamily=Helvetica;html=1;" parent="1" vertex="1">
          <mxGeometry x="100" y="120" width="340" height="90" as="geometry" />
        </mxCell>
        <mxCell id="HDzoqSaJvQR1_FK92WQv-8" value="440002 用户找不到&amp;nbsp;" style="html=1;verticalAlign=bottom;endArrow=open;dashed=1;endSize=8;" parent="1" edge="1">
          <mxGeometry relative="1" as="geometry">
            <mxPoint x="430" y="250" as="sourcePoint" />
            <mxPoint x="100" y="250" as="targetPoint" />
          </mxGeometry>
        </mxCell>
        <mxCell id="HDzoqSaJvQR1_FK92WQv-9" value="440003 appSecret错误" style="html=1;verticalAlign=bottom;endArrow=open;dashed=1;endSize=8;" parent="1" edge="1">
          <mxGeometry relative="1" as="geometry">
            <mxPoint x="430" y="290" as="sourcePoint" />
            <mxPoint x="100" y="290" as="targetPoint" />
            <Array as="points">
              <mxPoint x="260" y="290" />
            </Array>
          </mxGeometry>
        </mxCell>
        <mxCell id="HDzoqSaJvQR1_FK92WQv-10" value="440004 appId错误" style="html=1;verticalAlign=bottom;endArrow=open;dashed=1;endSize=8;" parent="1" edge="1">
          <mxGeometry relative="1" as="geometry">
            <mxPoint x="430" y="320" as="sourcePoint" />
            <mxPoint x="100" y="320" as="targetPoint" />
            <Array as="points" />
          </mxGeometry>
        </mxCell>
        <mxCell id="HDzoqSaJvQR1_FK92WQv-11" value="440005 appId不能为空" style="html=1;verticalAlign=bottom;endArrow=open;dashed=1;endSize=8;" parent="1" edge="1">
          <mxGeometry relative="1" as="geometry">
            <mxPoint x="430" y="350" as="sourcePoint" />
            <mxPoint x="100" y="350" as="targetPoint" />
            <Array as="points" />
          </mxGeometry>
        </mxCell>
        <mxCell id="HDzoqSaJvQR1_FK92WQv-12" value="0 登录成功" style="html=1;verticalAlign=bottom;endArrow=open;dashed=1;endSize=8;" parent="1" edge="1">
          <mxGeometry relative="1" as="geometry">
            <mxPoint x="430" y="380" as="sourcePoint" />
            <mxPoint x="100" y="380" as="targetPoint" />
            <Array as="points" />
          </mxGeometry>
        </mxCell>
        <mxCell id="HDzoqSaJvQR1_FK92WQv-14" value="&lt;h1&gt;新商户资质认证&lt;/h1&gt;&lt;p&gt;新商户资质认证&lt;/p&gt;" style="text;html=1;strokeColor=none;fillColor=none;spacing=5;spacingTop=-20;whiteSpace=wrap;overflow=hidden;rounded=0;" parent="1" vertex="1">
          <mxGeometry x="60" y="450" width="190" height="120" as="geometry" />
        </mxCell>
        <mxCell id="HDzoqSaJvQR1_FK92WQv-15" value="app" style="shape=umlLifeline;perimeter=lifelinePerimeter;whiteSpace=wrap;html=1;container=1;collapsible=0;recursiveResize=0;outlineConnect=0;" parent="1" vertex="1">
          <mxGeometry x="60" y="550" width="100" height="300" as="geometry" />
        </mxCell>
        <mxCell id="HDzoqSaJvQR1_FK92WQv-20" value="" style="edgeStyle=orthogonalEdgeStyle;rounded=0;orthogonalLoop=1;jettySize=auto;html=1;" parent="1" source="HDzoqSaJvQR1_FK92WQv-16" target="HDzoqSaJvQR1_FK92WQv-16" edge="1">
          <mxGeometry relative="1" as="geometry">
            <Array as="points">
              <mxPoint x="460" y="640" />
              <mxPoint x="460" y="670" />
            </Array>
          </mxGeometry>
        </mxCell>
        <mxCell id="HDzoqSaJvQR1_FK92WQv-16" value="认证服务" style="shape=umlLifeline;perimeter=lifelinePerimeter;whiteSpace=wrap;html=1;container=1;collapsible=0;recursiveResize=0;outlineConnect=0;" parent="1" vertex="1">
          <mxGeometry x="350" y="550" width="100" height="300" as="geometry" />
        </mxCell>
        <mxCell id="HDzoqSaJvQR1_FK92WQv-17" value="一键登录" style="html=1;verticalAlign=bottom;endArrow=block;" parent="1" source="HDzoqSaJvQR1_FK92WQv-15" edge="1">
          <mxGeometry width="80" relative="1" as="geometry">
            <mxPoint x="150" y="620" as="sourcePoint" />
            <mxPoint x="400" y="620" as="targetPoint" />
          </mxGeometry>
        </mxCell>
        <mxCell id="HDzoqSaJvQR1_FK92WQv-18" value="业务服务" style="shape=umlLifeline;perimeter=lifelinePerimeter;whiteSpace=wrap;html=1;container=1;collapsible=0;recursiveResize=0;outlineConnect=0;" parent="1" vertex="1">
          <mxGeometry x="620" y="550" width="100" height="300" as="geometry" />
        </mxCell>
        <mxCell id="HDzoqSaJvQR1_FK92WQv-22" value="调用/auth/login " style="text;align=center;fontStyle=1;verticalAlign=middle;spacingLeft=3;spacingRight=3;strokeColor=none;rotatable=0;points=[[0,0.5],[1,0.5]];portConstraint=eastwest;" parent="1" vertex="1">
          <mxGeometry x="490" y="610" width="80" height="26" as="geometry" />
        </mxCell>
        <mxCell id="HDzoqSaJvQR1_FK92WQv-23" value="返回440002" style="text;align=center;fontStyle=1;verticalAlign=middle;spacingLeft=3;spacingRight=3;strokeColor=none;rotatable=0;points=[[0,0.5],[1,0.5]];portConstraint=eastwest;" parent="1" vertex="1">
          <mxGeometry x="490" y="650" width="80" height="26" as="geometry" />
        </mxCell>
        <mxCell id="HDzoqSaJvQR1_FK92WQv-24" value="申请认证" style="html=1;verticalAlign=bottom;endArrow=block;" parent="1" target="HDzoqSaJvQR1_FK92WQv-18" edge="1">
          <mxGeometry width="80" relative="1" as="geometry">
            <mxPoint x="110" y="740" as="sourcePoint" />
            <mxPoint x="400.5" y="740" as="targetPoint" />
          </mxGeometry>
        </mxCell>
        <mxCell id="fdsQdB6przZ2AXfrtC6k-1" value="/system/notoken/company/apply" style="text;html=1;strokeColor=none;fillColor=none;align=center;verticalAlign=middle;whiteSpace=wrap;rounded=0;" vertex="1" parent="1">
          <mxGeometry x="130" y="700" width="310" height="20" as="geometry" />
        </mxCell>
        <mxCell id="fdsQdB6przZ2AXfrtC6k-2" value="后台审核" style="html=1;verticalAlign=bottom;endArrow=open;dashed=1;endSize=8;" edge="1" parent="1" target="HDzoqSaJvQR1_FK92WQv-15">
          <mxGeometry relative="1" as="geometry">
            <mxPoint x="670" y="810" as="sourcePoint" />
            <mxPoint x="590" y="810" as="targetPoint" />
          </mxGeometry>
        </mxCell>
        <mxCell id="fdsQdB6przZ2AXfrtC6k-3" value="/system/pankit/company/audit" style="text;html=1;strokeColor=none;fillColor=none;align=center;verticalAlign=middle;whiteSpace=wrap;rounded=0;" vertex="1" parent="1">
          <mxGeometry x="115" y="770" width="310" height="20" as="geometry" />
        </mxCell>
      </root>
    </mxGraphModel>
  </diagram>
</mxfile>
